<svg viewBox="0 0 64 64" fill="none" width="32" height="32" xmlns="http://www.w3.org/2000/svg" xmlns:xlink="http://www.w3.org/1999/xlink">
    <style>
        :root, .palette0 {color: currentColor;
            --color0: #4d5ae5;
            --color1: #2e2f42;
            --color2: #f4f4fd;
        }
    </style>
    <g fill="var(--color0, #4d5ae5)" clip-path="url(#diagram1_clip0_1065735_1558)">
        <path d="M29.851 29.9292h2.1323v9.595H29.851z" />
        <path d="M38.3799 34.1936h2.1322v5.3306h-2.1322z" />
        <path d="M21.3222 37.392h2.1322v2.1322h-2.1322z" />
        <path d="M14.9255 36.3258h2.1322v3.1983h-2.1322z" />
        <path fill="var(--color1, #2e2f42)" d="M3.1983 56.5819h51.1732c1.7663 0 3.1984-1.432 3.1984-3.1983v-4.2644c0-1.7663-1.4321-3.1984-3.1984-3.1984h-1.0661V19.3342l6.0557-5.7366c1.4055 0.6929 3.1067 0.2723 4.0265-0.9973 0.9204-1.2692 0.7913-3.0167-0.305-4.1369-1.0963-1.1203-2.8402-1.2874-4.1296-0.3957-1.2889 0.8923-1.747 2.5836-1.0849 4.0042l-4.5627 4.3253v-2.4596c0-1.7663-1.432-3.1983-3.1983-3.1983H7.4628c-1.7663 0-3.1984 1.432-3.1984 3.1983l0 31.9832H3.1983C1.4321 45.9208 0 47.3529 0 49.1192v4.2644c0 1.7663 1.4321 3.1983 3.1983 3.1983zM60.7682 9.6731c0.5887 0 1.0661 0.4774 1.0661 1.0662 0 0.5887-0.4774 1.0661-1.0661 1.0661-0.5888 0-1.0661-0.4774-1.0661-1.0661 0-0.5888 0.4773-1.0662 1.0661-1.0662zM6.3967 13.9376c0-0.5888 0.4773-1.0661 1.0661-1.0661h42.6443c0.5887 0 1.0661 0.4773 1.0661 1.0661v4.4773l-2.1322 2.026v-4.3711c0-0.5888-0.4774-1.0661-1.0661-1.0661H9.595c-0.5888 0-1.0661 0.4773-1.0661 1.0661l0 26.6527c0 0.5888 0.4773 1.0661 1.0661 1.0661h38.3799c0.5887 0 1.0661-0.4773 1.0661-1.0661V23.3738l2.1322-2.0203v24.5673H6.3967zM15.9916 27.797c-1.4424-42e-4-2.709 0.9568-3.0926 2.3472-0.3837 1.3904 0.2103 2.8652 1.4508 3.6012 1.24 0.7361 2.8199 0.5513 3.8563-0.4518l3.7059 1.8594c0.4305 0.2155 0.9526 0.1146 1.2727-0.2452l7.8777-8.8625 7.7438 5.8027c0.4154 0.3113 0.9954 0.278 1.3722-0.0786l6.7304-6.3753v16.2623H10.6611V17.1359h36.2477v5.3207l-7.543 7.1431-7.8089-5.8542c-0.4435-0.3322-1.0677-0.2697-1.4362 0.1442l-7.9859 8.9854-2.9855-1.493c0.0219-0.1281 0.0354-0.2572 0.0407-0.3868 0-1.7662-1.4321-3.1983-3.1984-3.1983zM17.0577 30.9953c0 0.5888-0.4773 1.0661-1.0661 1.0661-0.5887 0-1.0661-0.4773-1.0661-1.0661 0-0.5887 0.4774-1.0661 1.0661-1.0661 0.5888 0 1.0661 0.4774 1.0661 1.0661zM23.4544 48.0531h10.6611v1.0661c0 0.5887-0.4774 1.0661-1.0661 1.0661h-8.5289c-0.5888 0-1.0661-0.4774-1.0661-1.0661zM2.1322 49.1192c0-0.5888 0.4774-1.0661 1.0661-1.0661h18.1239v1.0661c0 1.7662 1.432 3.1983 3.1983 3.1983h8.5289c1.7662 0 3.1983-1.4321 3.1983-3.1983v-1.0661h18.1238c0.5888 0 1.0661 0.4773 1.0661 1.0661v4.2644c0 0.5887-0.4773 1.0661-1.0661 1.0661H3.1983c-0.5887 0-1.0661-0.4774-1.0661-1.0661z" />
    </g>
    <defs>
        <clipPath id="diagram1_clip0_1065735_1558">
            <rect fill="#fff" width="64" height="64" />
        </clipPath>
    </defs>
</svg>